<?xml version="1.0" encoding="UTF-8" standalone="no"?>
<!-- Created with Inkscape (http://www.inkscape.org/) -->

<svg
   xmlns:dc="http://purl.org/dc/elements/1.1/"
   xmlns:cc="http://creativecommons.org/ns#"
   xmlns:rdf="http://www.w3.org/1999/02/22-rdf-syntax-ns#"
   xmlns:svg="http://www.w3.org/2000/svg"
   xmlns="http://www.w3.org/2000/svg"
   xmlns:sodipodi="http://sodipodi.sourceforge.net/DTD/sodipodi-0.dtd"
   xmlns:inkscape="http://www.inkscape.org/namespaces/inkscape"
   width="199.8132mm"
   height="183.42403mm"
   viewBox="0 0 199.81319 183.42402"
   version="1.1"
   id="svg8"
   sodipodi:docname="rocket.svg"
   inkscape:version="0.92.0 r15299">
  <defs
     id="defs2" />
  <sodipodi:namedview
     id="base"
     pagecolor="#ffffff"
     bordercolor="#666666"
     borderopacity="1.0"
     inkscape:pageopacity="0.0"
     inkscape:pageshadow="2"
     inkscape:zoom="0.98994949"
     inkscape:cx="138.61004"
     inkscape:cy="385.08633"
     inkscape:document-units="mm"
     inkscape:current-layer="layer1"
     showgrid="false"
     inkscape:window-width="1920"
     inkscape:window-height="1025"
     inkscape:window-x="-8"
     inkscape:window-y="-8"
     inkscape:window-maximized="1"
     fit-margin-top="0"
     fit-margin-left="0"
     fit-margin-right="0"
     fit-margin-bottom="0" />
  <metadata
     id="metadata5">
    <rdf:RDF>
      <cc:Work
         rdf:about="">
        <dc:format>image/svg+xml</dc:format>
        <dc:type
           rdf:resource="http://purl.org/dc/dcmitype/StillImage" />
        <dc:title></dc:title>
      </cc:Work>
    </rdf:RDF>
  </metadata>
  <g
     inkscape:label="Layer 1"
     inkscape:groupmode="layer"
     id="layer1"
     transform="translate(-35.814294,-113.57597)">
    <path
       style="opacity:1;vector-effect:none;fill:#000000;fill-opacity:1;stroke:#000000;stroke-width:0.44769377;stroke-linecap:butt;stroke-linejoin:miter;stroke-miterlimit:4;stroke-dasharray:none;stroke-dashoffset:0;stroke-opacity:1"
       d="m 89.034258,295.6029 c -2.927152,-5.49305 1.752461,-10.67953 2.016474,-15.27885 1.320203,-4.3718 3.495288,-8.73436 3.576172,-12.74092 -2.036368,-2.15077 -4.165262,-4.56701 -6.344561,-6.19008 -4.173927,-4.67876 -9.535826,-8.91869 -13.925526,-13.87695 -4.663294,-6.55291 -10.712772,-9.4296 -17.911777,-4.37145 -6.134146,0.77698 -18.111258,10.43851 -20.386567,1.03343 0.699261,-5.25404 2.487886,-9.3765 4.390229,-13.81343 0.246409,-2.16461 2.608778,-5.89247 3.575801,-8.85619 0.799103,-1.36617 1.475789,-2.96092 2.6775,-5.09838 0.804695,-2.37911 2.097385,-4.2233 3.36264,-6.34266 1.215104,-2.13976 1.944876,-3.4475 3.38511,-5.18714 0.613632,-1.78856 4.663976,-5.6661 7.024074,-8.06971 4.161433,-5.33699 12.714417,-7.6734 19.950942,-7.19814 6.827095,-0.85489 13.442972,1.98365 18.529518,-4.70547 2.176233,-2.75764 4.920063,-5.84584 8.584303,-9.90732 4.90388,-5.4535 10.17456,-10.51215 15.91222,-15.21543 6.0693,-4.7285 11.9479,-10.20401 18.55879,-13.48194 16.6749,-9.95238 35.82296,-16.27784 55.30113,-16.8583 9.84226,9.79619 2.29306,33.09162 -4.26022,46.69286 -4.29089,8.73156 -8.10069,13.98452 -12.18794,20.24927 -8.40109,12.82854 -20.63238,24.23445 -30.69262,34.36574 -5.63518,4.12562 -5.49403,11.02748 -4.6231,17.70702 0.0861,5.83741 0.0676,13.07349 -2.9586,17.76426 -1.66783,2.62484 -3.7237,5.19756 -6.02186,7.16936 -3.54843,3.54353 -8.30906,6.34855 -13.02656,9.46187 -9.51089,5.55538 -19.64463,10.13511 -30.018944,13.79044 -1.50331,0.11219 -3.504748,0.5513 -4.486628,-1.04189 z m 10.873087,-10.3911 c 13.130495,-6.05709 27.828835,-12.01398 35.886775,-24.71673 1.4182,-4.58844 2.39414,-15.3266 0.0621,-17.33868 -10.53405,8.34314 -21.56149,16.13536 -31.78138,24.8391 -0.75506,4.9396 -6.130678,14.7732 -4.167505,17.21631 z m 1.950975,-26.4142 c 28.01537,-22.72218 59.30398,-43.91544 77.16016,-76.21479 7.55322,-13.2252 11.62805,-28.19874 13.13718,-43.29362 -5.40646,-2.32146 -15.17428,2.04278 -21.92742,3.44823 -22.89154,6.96257 -42.18038,22.2158 -57.91572,39.86219 -14.581827,15.9887 -26.478657,34.15482 -39.284037,51.52905 8.623993,8.97424 17.722329,17.52693 26.709906,26.13858 l 0.731501,-0.43171 z M 48.595043,236.93065 c 6.645102,-3.16909 15.911125,-3.00316 19.599361,-10.33114 6.75546,-9.42313 13.639675,-18.76311 20.309717,-28.24205 -9.232366,-1.51068 -20.09284,-0.53731 -25.525507,8.1969 -7.252542,9.08196 -12.142662,19.90584 -15.874061,30.81408 z"
       id="path4643"
       inkscape:connector-curvature="0"
       sodipodi:nodetypes="ccccccccccccccccccccccccccccccccccccccccccccccccc" />
    <path
       style="opacity:1;vector-effect:none;fill:#000000;fill-opacity:1;stroke:#000000;stroke-width:0.40607142;stroke-linecap:butt;stroke-linejoin:miter;stroke-miterlimit:4;stroke-dasharray:none;stroke-dashoffset:0;stroke-opacity:1"
       d="m 218.09192,160.51724 c 0.2461,-0.77541 0.98814,-3.42771 1.30071,-4.64918 0.15323,-0.5988 0.39964,-1.31487 0.54756,-1.59128 0.22292,-0.41652 0.0171,-0.6826 -1.20227,-1.55442 -0.80917,-0.57852 -1.59751,-1.19039 -1.75186,-1.3597 -0.15435,-0.16932 -0.81735,-0.72693 -1.47332,-1.23915 -0.65598,-0.51221 -1.1927,-1.04697 -1.1927,-1.18835 0,-0.14272 1.65462,-0.25705 3.72004,-0.25705 h 3.72004 l 0.33285,-0.77174 c 0.18307,-0.42446 0.72171,-1.90466 1.19699,-3.28935 0.79335,-2.31138 1.26898,-3.24839 1.49033,-2.93602 0.0474,0.0669 0.35741,0.94246 0.68892,1.94572 0.33151,1.00326 0.85317,2.51868 1.15923,3.36759 l 0.55649,1.54348 3.97055,0.14032 3.97054,0.14032 -0.7913,0.72794 c -0.43523,0.40036 -1.29645,1.09493 -1.91385,1.54348 -0.61739,0.44855 -1.2797,0.96369 -1.47181,1.14477 -0.1921,0.18108 -0.67687,0.58692 -1.07727,0.90188 -0.67804,0.53334 -0.70885,0.65518 -0.44904,1.77551 0.15342,0.66158 0.41233,1.58173 0.57535,2.04478 0.66412,1.88638 1.18307,3.85894 1.05019,3.99182 -0.13215,0.13215 -2.10697,-0.95157 -2.41596,-1.32581 -0.0772,-0.0935 -0.64546,-0.47233 -1.26285,-0.8419 -0.61739,-0.36958 -1.18567,-0.74389 -1.26285,-0.83182 -0.0772,-0.0879 -0.4509,-0.35916 -0.83052,-0.60275 -0.67064,-0.43034 -0.77722,-0.38448 -3.76117,1.61837 -1.68903,1.13369 -3.18651,2.06126 -3.32773,2.06126 -0.14122,0 -0.1841,-0.22892 -0.0953,-0.50872 z"
       id="path4645"
       inkscape:connector-curvature="0" />
    <path
       style="opacity:1;vector-effect:none;fill:#000000;fill-opacity:1;stroke:#000000;stroke-width:0.40607142;stroke-linecap:butt;stroke-linejoin:miter;stroke-miterlimit:4;stroke-dasharray:none;stroke-dashoffset:0;stroke-opacity:1"
       d="m 155.2735,126.73223 c 0,-0.0699 0.23404,-0.86974 0.52008,-1.77734 0.76189,-2.41745 0.88241,-3.02611 0.66094,-3.33793 -0.10934,-0.15394 -0.92494,-0.81998 -1.81244,-1.48008 -0.8875,-0.6601 -1.61364,-1.31746 -1.61364,-1.4608 0,-0.14334 1.10106,-0.29711 2.4468,-0.3417 l 2.4468,-0.0811 0.85064,-2.16127 c 0.46785,-1.1887 0.92335,-2.2296 1.01222,-2.31311 0.0889,-0.0835 0.51796,0.92064 0.95352,2.23143 l 0.79194,2.38327 2.6947,0.003 2.69471,0.003 -1.26284,1.08973 c -0.69457,0.59935 -1.62317,1.39211 -2.06355,1.76168 l -0.8007,0.67195 0.72414,2.35798 c 0.39827,1.29688 0.68404,2.39807 0.63504,2.44707 -0.049,0.049 -0.58284,-0.2645 -1.18629,-0.69668 -0.60346,-0.43217 -1.57163,-1.07532 -2.1515,-1.4292 l -1.05431,-0.64343 -2.03265,1.35709 c -2.18244,1.45709 -2.45361,1.6137 -2.45361,1.41704 z"
       id="path4647"
       inkscape:connector-curvature="0" />
    <path
       style="opacity:1;vector-effect:none;fill:#000000;fill-opacity:1;stroke:#000000;stroke-width:0.40607142;stroke-linecap:butt;stroke-linejoin:miter;stroke-miterlimit:4;stroke-dasharray:none;stroke-dashoffset:0;stroke-opacity:1"
       d="m 67.180543,166.02506 c 0.34624,-1.29245 1.07483,-3.7541 1.43278,-4.84092 0.20334,-0.6174 0.44956,-1.57352 0.54715,-2.12472 0.1706,-0.96366 0.11455,-1.04951 -1.45803,-2.23301 -3.02582,-2.2772 -4.72184,-3.72333 -4.81316,-4.10399 -0.0731,-0.30483 0.75252,-0.37822 4.25512,-0.37822 h 4.34586 l 0.73083,-1.91257 c 0.40195,-1.0519 0.84789,-2.28318 0.99097,-2.73617 0.60463,-1.91427 1.09151,-3.05464 1.33945,-3.13729 0.14564,-0.0486 0.46658,0.51531 0.71321,1.25303 0.86989,2.60205 1.12285,3.31032 1.3428,3.75968 0.12221,0.24968 0.36272,0.97582 0.53446,1.61364 l 0.31227,1.15968 h 4.46275 c 2.45451,0 4.5288,0.10686 4.60952,0.23748 0.0807,0.13061 -0.7011,0.87091 -1.7374,1.64511 -1.03628,0.77419 -2.26301,1.73032 -2.72606,2.12471 -0.46304,0.3944 -1.19372,1.01166 -1.62372,1.3717 -0.77278,0.64704 -0.77721,0.66921 -0.38343,1.91745 0.21912,0.69457 0.6833,2.20999 1.03152,3.3676 0.34821,1.15761 0.74648,2.40521 0.88504,2.77244 0.13856,0.36723 0.18778,0.73183 0.10937,0.81024 -0.0784,0.0784 -1.78728,-0.95301 -3.7975,-2.29203 -2.87704,-1.91642 -3.7598,-2.3784 -4.14761,-2.1706 -0.27096,0.14519 -1.91862,1.22343 -3.66146,2.39608 -1.74284,1.17265 -3.2352,2.1321 -3.31635,2.1321 -0.0811,0 -0.0714,-0.28414 0.0216,-0.63142 z"
       id="path4649"
       inkscape:connector-curvature="0" />
    <path
       style="opacity:1;vector-effect:none;fill:#000000;fill-opacity:1;stroke:#000000;stroke-width:0.40607142;stroke-linecap:butt;stroke-linejoin:miter;stroke-miterlimit:4;stroke-dasharray:none;stroke-dashoffset:0;stroke-opacity:1"
       d="m 190.12678,266.27384 c 0.08,-0.44053 0.41546,-1.68495 0.74553,-2.76539 0.55934,-1.83093 1.16214,-3.89313 1.72267,-5.89329 0.12976,-0.46304 0.47699,-1.68704 0.77162,-2.72 l 0.53569,-1.87809 -0.87195,-0.81857 c -0.47957,-0.45021 -1.56651,-1.33453 -2.41543,-1.96517 -0.84891,-0.63063 -2.42747,-1.84856 -3.50791,-2.7065 -1.08044,-0.85794 -2.49622,-1.96987 -3.14617,-2.47097 -0.64997,-0.5011 -1.18668,-1.0037 -1.1927,-1.1169 -0.006,-0.1132 3.27751,-0.23948 7.29673,-0.28063 l 7.30767,-0.0748 1.13646,-3.22728 c 0.62505,-1.775 1.3065,-3.73242 1.51433,-4.34981 0.20783,-0.61739 0.7648,-2.19492 1.23771,-3.50561 0.47291,-1.31069 0.85984,-2.41568 0.85984,-2.45553 0,-0.0399 0.12941,-0.0725 0.28757,-0.0725 0.15817,0 0.42555,0.34728 0.59418,0.77174 0.43028,1.08306 3.25964,9.11255 3.95549,11.22532 l 0.57767,1.75396 h 7.4119 c 4.86966,0 7.3524,0.0962 7.23845,0.28062 -0.15649,0.2532 -1.97426,1.70293 -6.15784,4.91109 -0.80511,0.61739 -2.25484,1.75177 -3.22162,2.52085 -2.09873,1.66954 -2.09817,0.93293 -0.006,7.86257 0.70289,2.32805 0.94086,3.14132 1.51399,5.17409 0.23662,0.83923 0.50631,1.76563 0.59932,2.05868 0.15198,0.47885 0.10247,0.49823 -0.48887,0.1914 -0.36189,-0.18777 -3.20579,-2.02877 -6.31978,-4.09109 l -5.6618,-3.7497 -5.28289,3.49686 c -2.90559,1.92327 -5.41713,3.61005 -5.5812,3.74842 -0.16407,0.13835 -0.59076,0.40807 -0.9482,0.59936 -0.61876,0.33116 -0.64292,0.30945 -0.50448,-0.45314 z"
       id="path4651"
       inkscape:connector-curvature="0" />
    <circle
       style="fill:#000000;fill-opacity:1;fill-rule:nonzero;stroke:#000000;stroke-width:0.37900001;stroke-miterlimit:4;stroke-dasharray:none;stroke-opacity:1"
       id="path4672"
       cx="113.28065"
       cy="216.07454"
       r="10.583333" />
    <circle
       r="10.583333"
       cy="194.15845"
       cx="135.99855"
       id="circle4675"
       style="fill:#000000;fill-opacity:1;fill-rule:nonzero;stroke:#000000;stroke-width:0.37900001;stroke-miterlimit:4;stroke-dasharray:none;stroke-opacity:1" />
    <circle
       style="fill:#000000;fill-opacity:1;fill-rule:nonzero;stroke:#000000;stroke-width:0.37900001;stroke-miterlimit:4;stroke-dasharray:none;stroke-opacity:1"
       id="circle4677"
       cx="157.91466"
       cy="173.04416"
       r="10.583333" />
  </g>
</svg>
